<svg width="152" height="136" viewBox="0 0 152 136" fill="none" xmlns="http://www.w3.org/2000/svg">
<g clip-path="url(#clip0_7_2)">
<path d="M87.15 101.13C82.08 97.6 75.93 96.25 69.84 97.33C61.27 98.86 52.61 96.96 45.47 91.98C38.32 87 33.55 79.53 32.02 70.96C30.49 62.39 32.39 53.74 37.37 46.59C42.35 39.45 49.82 34.6699 58.39 33.1399C66.96 31.6099 75.61 33.51 82.75 38.49C89.89 43.47 94.67 50.93 96.2 59.5C97.29 65.59 100.68 70.89 105.75 74.43C110.82 77.97 116.97 79.32 123.06 78.23C127.04 77.52 131.04 77.56 134.89 78.29C136.02 71.06 136 63.5299 134.64 55.9199C128.06 19.0499 92.82 -5.52005 55.93 1.06995C19.05 7.64995 -5.52 42.89 1.07 79.78C7.65 116.67 42.89 141.23 79.78 134.65C87.39 133.29 94.46 130.7 100.85 127.14C98.83 123.78 97.41 120.04 96.7 116.06C95.61 109.97 92.22 104.67 87.15 101.14V101.13Z" fill="white"/>
<path d="M151.58 106.26C150.49 100.17 147.1 94.88 142.03 91.34C139.21 89.38 136.06 88.12 132.78 87.55C130.15 87.09 127.43 87.07 124.72 87.55C116.15 89.08 107.5 87.18 100.35 82.2C93.21 77.22 88.43 69.76 86.9 61.18C85.81 55.09 82.42 49.79 77.35 46.26C72.28 42.73 66.13 41.38 60.04 42.46C53.95 43.55 48.65 46.94 45.11 52.01C41.57 57.08 40.22 63.23 41.31 69.31C42.4 75.4 45.79 80.7 50.87 84.24C55.95 87.78 62.1 89.13 68.18 88.04C70.11 87.69 72.05 87.52 73.98 87.52C80.58 87.52 87.02 89.53 92.55 93.38C99.69 98.36 104.47 105.82 106 114.39C106.48 117.1 107.45 119.64 108.79 121.95C110.46 124.83 112.74 127.35 115.55 129.31C120.62 132.85 126.77 134.19 132.86 133.11C145.43 130.87 153.83 118.82 151.59 106.25L151.58 106.26Z" fill="white"/>
</g>
<defs>
<clipPath id="clip0_7_2">
<rect width="151.94" height="135.71" fill="white"/>
</clipPath>
</defs>
</svg>
